<?xml version="1.0" encoding="UTF-8"?>
<svg id="Livello_1" xmlns="http://www.w3.org/2000/svg" version="1.1" viewBox="0 0 160 56">
  <!-- Generator: Adobe Illustrator 29.6.1, SVG Export Plug-In . SVG Version: 2.1.1 Build 9)  -->
  <path d="M69.5,28.4h-4.4v-.7h10.4v18.8c0,6,1.4,8.3,4.6,8.3,5.6,0,6.9-6.5,6.9-9.8v-16.7h-4.2v-.7h10.3v26.4h4.4v.7h-10.4v-5.2c-.9,2.7-2.5,5.9-7.4,5.9s-6.1-1.3-7.9-3.4c-1.7-2-2.2-4.9-2.2-8.6v-15.1h0Z"/>
  <path d="M112.6,51.5c1.8,3.2,4.6,3.3,5.5,3.3,5.2,0,5.8-4.7,5.8-14.7s-.3-12.9-5.9-12.9-3.2.6-4.4,1.7c-2.2,2.1-2.3,4.2-2.3,11.9s.2,8.7,1.3,10.6M105.7,9.7h-4.4v-.7h10.4v21.1c.7-1.1,2.3-3.7,6.2-3.7s12.6,5.8,12.6,14.5-6.7,14.5-12.5,14.5-5.7-2.9-6.4-4.1v3.4h-10.4v-.7h4.4V9.7h0Z"/>
  <path d="M154.2,39c0-9-1-11.8-5.6-11.8s-5.9,4.5-5.9,11.8h11.5ZM159.8,49.4c-1.7,4.2-6.1,6.6-10.5,6.6-7.2,0-13.4-5.3-13.4-14s6.3-15.5,13-15.5c5,0,11.1,4.5,11.1,13.2h-17.3v2.2c0,6.8,0,13.4,6.6,13.4s7.5-1.2,9.9-6.2l.6.2h0Z"/>
  <path d="M22.6,12.8l8.7,22.5H13.9l8.7-22.5h0ZM31.7,36.1l1.1,2.8,4.6-13.1L27.2,0h-.6S5.2,55.2,5.2,55.2H0v.8s12.6,0,12.6,0v-.8h-6.4l7.2-19h18.1Z"/>
  <path d="M63.4,49.2c-1.9,4-5.8,6.2-10.1,6.2s-6.4-2.6-6.4-13.9,1.4-14.2,6.4-14.2,3,.7,3,2.5-.2,1.5-.2,2.2c0,1.9,1.8,2.2,3.3,2.2s3.3-.2,3.3-2.2-3-5.5-9.1-5.5-7,1.7-9.4,4.3l-4.2,11.9c.3,8.3,6.4,13.3,13.2,13.3s8.8-2.2,10.8-6.6l-.6-.2h0Z"/>
</svg>